<mxfile host="app.diagrams.net" modified="2023-11-08T14:39:30.547Z" agent="Mozilla/5.0 (X11; Linux x86_64) AppleWebKit/537.36 (KHTML, like Gecko) Chrome/119.0.0.0 Safari/537.36" etag="ps6_ZBe_zu0E0f-y5IgX" version="22.0.8" type="github" pages="2">
  <diagram name="0001" id="y2zCg2tqc-IcQTNm7M6H">
    <mxGraphModel dx="1434" dy="907" grid="1" gridSize="10" guides="1" tooltips="1" connect="1" arrows="1" fold="1" page="1" pageScale="1" pageWidth="1169" pageHeight="827" math="0" shadow="0">
      <root>
        <mxCell id="sdHGfgtrLrPXHbDimJ2l-0" />
        <mxCell id="sdHGfgtrLrPXHbDimJ2l-1" parent="sdHGfgtrLrPXHbDimJ2l-0" />
        <mxCell id="sdHGfgtrLrPXHbDimJ2l-57" value="&lt;b style=&quot;font-size: 16px;&quot;&gt;费控调度模型&lt;/b&gt;" style="text;html=1;align=left;verticalAlign=middle;resizable=0;points=[];autosize=1;strokeColor=none;fillColor=none;fontSize=16;rounded=0;labelBackgroundColor=none;" parent="sdHGfgtrLrPXHbDimJ2l-1" vertex="1">
          <mxGeometry x="40.5" y="20" width="120" height="30" as="geometry" />
        </mxCell>
        <mxCell id="mJRqOh_GaLxKxlAPAF-w-1" value="" style="edgeStyle=orthogonalEdgeStyle;rounded=0;orthogonalLoop=1;jettySize=auto;html=1;shape=arrow;" edge="1" parent="sdHGfgtrLrPXHbDimJ2l-1" source="DtQQWt-DvLBq8CPffun4-25" target="mJRqOh_GaLxKxlAPAF-w-0">
          <mxGeometry relative="1" as="geometry" />
        </mxCell>
        <mxCell id="DtQQWt-DvLBq8CPffun4-25" value="用水户A" style="rounded=0;whiteSpace=wrap;html=1;" parent="sdHGfgtrLrPXHbDimJ2l-1" vertex="1">
          <mxGeometry x="40.5" y="120" width="120" height="40" as="geometry" />
        </mxCell>
        <mxCell id="mJRqOh_GaLxKxlAPAF-w-0" value="用水户B" style="rounded=0;whiteSpace=wrap;html=1;" vertex="1" parent="sdHGfgtrLrPXHbDimJ2l-1">
          <mxGeometry x="320.5" y="120" width="120" height="40" as="geometry" />
        </mxCell>
        <mxCell id="mJRqOh_GaLxKxlAPAF-w-2" value="" style="shape=step;perimeter=stepPerimeter;whiteSpace=wrap;html=1;fixedSize=1;direction=south;" vertex="1" parent="sdHGfgtrLrPXHbDimJ2l-1">
          <mxGeometry x="220.5" y="183" width="40" height="80" as="geometry" />
        </mxCell>
        <mxCell id="mJRqOh_GaLxKxlAPAF-w-3" value="" style="edgeStyle=orthogonalEdgeStyle;rounded=0;orthogonalLoop=1;jettySize=auto;html=1;shape=flexArrow;startArrow=block;startFill=0;endArrow=none;endFill=0;dashed=1;dashPattern=1 2;" edge="1" source="mJRqOh_GaLxKxlAPAF-w-4" target="mJRqOh_GaLxKxlAPAF-w-5" parent="sdHGfgtrLrPXHbDimJ2l-1">
          <mxGeometry relative="1" as="geometry" />
        </mxCell>
        <mxCell id="mJRqOh_GaLxKxlAPAF-w-4" value="用水户A&lt;br&gt;钱包" style="rounded=0;whiteSpace=wrap;html=1;dashed=1;strokeWidth=2;" vertex="1" parent="sdHGfgtrLrPXHbDimJ2l-1">
          <mxGeometry x="40.5" y="320" width="120" height="40" as="geometry" />
        </mxCell>
        <mxCell id="mJRqOh_GaLxKxlAPAF-w-5" value="用水户B&lt;br&gt;钱包" style="rounded=0;whiteSpace=wrap;html=1;dashed=1;strokeWidth=2;" vertex="1" parent="sdHGfgtrLrPXHbDimJ2l-1">
          <mxGeometry x="320.5" y="320" width="120" height="40" as="geometry" />
        </mxCell>
        <mxCell id="mJRqOh_GaLxKxlAPAF-w-6" value="水权配置流转" style="text;html=1;align=center;verticalAlign=middle;resizable=0;points=[];autosize=1;strokeColor=none;fillColor=none;" vertex="1" parent="sdHGfgtrLrPXHbDimJ2l-1">
          <mxGeometry x="185.5" y="100" width="100" height="30" as="geometry" />
        </mxCell>
        <mxCell id="mJRqOh_GaLxKxlAPAF-w-7" value="水权配额费用流转" style="text;html=1;align=center;verticalAlign=middle;resizable=0;points=[];autosize=1;strokeColor=none;fillColor=none;" vertex="1" parent="sdHGfgtrLrPXHbDimJ2l-1">
          <mxGeometry x="186.5" y="297" width="120" height="30" as="geometry" />
        </mxCell>
      </root>
    </mxGraphModel>
  </diagram>
  <diagram name="0002" id="0qYSl-LHH4jrc7Mf7E5g">
    <mxGraphModel dx="1434" dy="758" grid="1" gridSize="10" guides="1" tooltips="1" connect="1" arrows="1" fold="1" page="1" pageScale="1" pageWidth="1169" pageHeight="827" math="0" shadow="0">
      <root>
        <mxCell id="tF3hamqZoMe6q5XaNYsY-0" />
        <mxCell id="tF3hamqZoMe6q5XaNYsY-1" parent="tF3hamqZoMe6q5XaNYsY-0" />
        <mxCell id="tF3hamqZoMe6q5XaNYsY-2" value="&lt;b style=&quot;font-size: 16px;&quot;&gt;闸控调度模型&lt;/b&gt;" style="text;html=1;align=left;verticalAlign=middle;resizable=0;points=[];autosize=1;strokeColor=none;fillColor=none;fontSize=16;rounded=0;labelBackgroundColor=none;" vertex="1" parent="tF3hamqZoMe6q5XaNYsY-1">
          <mxGeometry x="40.5" y="20" width="120" height="30" as="geometry" />
        </mxCell>
        <mxCell id="tF3hamqZoMe6q5XaNYsY-3" value="" style="edgeStyle=orthogonalEdgeStyle;rounded=0;orthogonalLoop=1;jettySize=auto;html=1;entryX=0.5;entryY=0;entryDx=0;entryDy=0;" edge="1" parent="tF3hamqZoMe6q5XaNYsY-1" source="tF3hamqZoMe6q5XaNYsY-16" target="tF3hamqZoMe6q5XaNYsY-17">
          <mxGeometry relative="1" as="geometry">
            <Array as="points">
              <mxPoint x="620" y="200" />
              <mxPoint x="620" y="80" />
              <mxPoint x="700" y="80" />
            </Array>
          </mxGeometry>
        </mxCell>
        <mxCell id="tF3hamqZoMe6q5XaNYsY-4" value="" style="edgeStyle=orthogonalEdgeStyle;rounded=0;orthogonalLoop=1;jettySize=auto;html=1;entryX=0.5;entryY=0;entryDx=0;entryDy=0;" edge="1" parent="tF3hamqZoMe6q5XaNYsY-1" source="tF3hamqZoMe6q5XaNYsY-16" target="tF3hamqZoMe6q5XaNYsY-18">
          <mxGeometry relative="1" as="geometry">
            <Array as="points">
              <mxPoint x="620" y="200" />
              <mxPoint x="620" y="80" />
              <mxPoint x="860" y="80" />
            </Array>
          </mxGeometry>
        </mxCell>
        <mxCell id="tF3hamqZoMe6q5XaNYsY-5" value="" style="edgeStyle=orthogonalEdgeStyle;rounded=0;orthogonalLoop=1;jettySize=auto;html=1;entryX=0.5;entryY=0;entryDx=0;entryDy=0;" edge="1" parent="tF3hamqZoMe6q5XaNYsY-1" source="tF3hamqZoMe6q5XaNYsY-16" target="tF3hamqZoMe6q5XaNYsY-19">
          <mxGeometry relative="1" as="geometry">
            <Array as="points">
              <mxPoint x="620" y="200" />
              <mxPoint x="620" y="80" />
              <mxPoint x="780" y="80" />
            </Array>
          </mxGeometry>
        </mxCell>
        <mxCell id="tF3hamqZoMe6q5XaNYsY-6" value="" style="edgeStyle=orthogonalEdgeStyle;rounded=0;orthogonalLoop=1;jettySize=auto;html=1;entryX=0.5;entryY=0;entryDx=0;entryDy=0;" edge="1" parent="tF3hamqZoMe6q5XaNYsY-1" source="tF3hamqZoMe6q5XaNYsY-16" target="tF3hamqZoMe6q5XaNYsY-20">
          <mxGeometry relative="1" as="geometry">
            <Array as="points">
              <mxPoint x="620" y="200" />
              <mxPoint x="620" y="160" />
              <mxPoint x="700" y="160" />
            </Array>
          </mxGeometry>
        </mxCell>
        <mxCell id="tF3hamqZoMe6q5XaNYsY-7" value="" style="edgeStyle=orthogonalEdgeStyle;rounded=0;orthogonalLoop=1;jettySize=auto;html=1;entryX=0.5;entryY=0;entryDx=0;entryDy=0;" edge="1" parent="tF3hamqZoMe6q5XaNYsY-1" source="tF3hamqZoMe6q5XaNYsY-16" target="tF3hamqZoMe6q5XaNYsY-21">
          <mxGeometry relative="1" as="geometry">
            <Array as="points">
              <mxPoint x="620" y="200" />
              <mxPoint x="620" y="160" />
              <mxPoint x="780" y="160" />
            </Array>
          </mxGeometry>
        </mxCell>
        <mxCell id="tF3hamqZoMe6q5XaNYsY-8" value="" style="edgeStyle=orthogonalEdgeStyle;rounded=0;orthogonalLoop=1;jettySize=auto;html=1;entryX=0.5;entryY=0;entryDx=0;entryDy=0;" edge="1" parent="tF3hamqZoMe6q5XaNYsY-1" source="tF3hamqZoMe6q5XaNYsY-16" target="tF3hamqZoMe6q5XaNYsY-22">
          <mxGeometry relative="1" as="geometry">
            <Array as="points">
              <mxPoint x="620" y="200" />
              <mxPoint x="620" y="160" />
              <mxPoint x="860" y="160" />
            </Array>
          </mxGeometry>
        </mxCell>
        <mxCell id="tF3hamqZoMe6q5XaNYsY-9" value="" style="edgeStyle=orthogonalEdgeStyle;rounded=0;orthogonalLoop=1;jettySize=auto;html=1;exitX=1;exitY=0.5;exitDx=0;exitDy=0;" edge="1" parent="tF3hamqZoMe6q5XaNYsY-1" source="tF3hamqZoMe6q5XaNYsY-16" target="tF3hamqZoMe6q5XaNYsY-23">
          <mxGeometry relative="1" as="geometry">
            <Array as="points">
              <mxPoint x="620" y="200" />
              <mxPoint x="620" y="240" />
              <mxPoint x="700" y="240" />
            </Array>
          </mxGeometry>
        </mxCell>
        <mxCell id="tF3hamqZoMe6q5XaNYsY-10" value="" style="edgeStyle=orthogonalEdgeStyle;rounded=0;orthogonalLoop=1;jettySize=auto;html=1;exitX=1;exitY=0.5;exitDx=0;exitDy=0;" edge="1" parent="tF3hamqZoMe6q5XaNYsY-1" source="tF3hamqZoMe6q5XaNYsY-16" target="tF3hamqZoMe6q5XaNYsY-24">
          <mxGeometry relative="1" as="geometry">
            <Array as="points">
              <mxPoint x="620" y="200" />
              <mxPoint x="620" y="240" />
              <mxPoint x="780" y="240" />
            </Array>
          </mxGeometry>
        </mxCell>
        <mxCell id="tF3hamqZoMe6q5XaNYsY-11" value="" style="edgeStyle=orthogonalEdgeStyle;rounded=0;orthogonalLoop=1;jettySize=auto;html=1;exitX=1;exitY=0.5;exitDx=0;exitDy=0;" edge="1" parent="tF3hamqZoMe6q5XaNYsY-1" source="tF3hamqZoMe6q5XaNYsY-16" target="tF3hamqZoMe6q5XaNYsY-25">
          <mxGeometry relative="1" as="geometry">
            <Array as="points">
              <mxPoint x="620" y="200" />
              <mxPoint x="620" y="240" />
              <mxPoint x="860" y="240" />
            </Array>
          </mxGeometry>
        </mxCell>
        <mxCell id="tF3hamqZoMe6q5XaNYsY-12" value="" style="edgeStyle=orthogonalEdgeStyle;rounded=0;orthogonalLoop=1;jettySize=auto;html=1;exitX=1;exitY=0.5;exitDx=0;exitDy=0;" edge="1" parent="tF3hamqZoMe6q5XaNYsY-1" source="tF3hamqZoMe6q5XaNYsY-16" target="tF3hamqZoMe6q5XaNYsY-26">
          <mxGeometry relative="1" as="geometry">
            <Array as="points">
              <mxPoint x="620" y="200" />
              <mxPoint x="620" y="320" />
              <mxPoint x="700" y="320" />
            </Array>
          </mxGeometry>
        </mxCell>
        <mxCell id="tF3hamqZoMe6q5XaNYsY-13" value="" style="edgeStyle=orthogonalEdgeStyle;rounded=0;orthogonalLoop=1;jettySize=auto;html=1;exitX=1;exitY=0.5;exitDx=0;exitDy=0;" edge="1" parent="tF3hamqZoMe6q5XaNYsY-1" source="tF3hamqZoMe6q5XaNYsY-16" target="tF3hamqZoMe6q5XaNYsY-27">
          <mxGeometry relative="1" as="geometry">
            <Array as="points">
              <mxPoint x="620" y="200" />
              <mxPoint x="620" y="320" />
              <mxPoint x="780" y="320" />
            </Array>
          </mxGeometry>
        </mxCell>
        <mxCell id="tF3hamqZoMe6q5XaNYsY-14" value="" style="edgeStyle=orthogonalEdgeStyle;rounded=0;orthogonalLoop=1;jettySize=auto;html=1;exitX=1;exitY=0.5;exitDx=0;exitDy=0;" edge="1" parent="tF3hamqZoMe6q5XaNYsY-1" source="tF3hamqZoMe6q5XaNYsY-16" target="tF3hamqZoMe6q5XaNYsY-28">
          <mxGeometry relative="1" as="geometry">
            <Array as="points">
              <mxPoint x="620" y="200" />
              <mxPoint x="620" y="320" />
              <mxPoint x="860" y="320" />
            </Array>
          </mxGeometry>
        </mxCell>
        <mxCell id="tF3hamqZoMe6q5XaNYsY-15" value="" style="edgeStyle=orthogonalEdgeStyle;rounded=0;orthogonalLoop=1;jettySize=auto;html=1;" edge="1" parent="tF3hamqZoMe6q5XaNYsY-1" source="tF3hamqZoMe6q5XaNYsY-16" target="tF3hamqZoMe6q5XaNYsY-31">
          <mxGeometry relative="1" as="geometry" />
        </mxCell>
        <mxCell id="tF3hamqZoMe6q5XaNYsY-16" value="控制中枢" style="rounded=0;whiteSpace=wrap;html=1;" vertex="1" parent="tF3hamqZoMe6q5XaNYsY-1">
          <mxGeometry x="380" y="180" width="120" height="40" as="geometry" />
        </mxCell>
        <mxCell id="tF3hamqZoMe6q5XaNYsY-17" value="闸门A1" style="rounded=0;whiteSpace=wrap;html=1;" vertex="1" parent="tF3hamqZoMe6q5XaNYsY-1">
          <mxGeometry x="660" y="100" width="80" height="40" as="geometry" />
        </mxCell>
        <mxCell id="tF3hamqZoMe6q5XaNYsY-18" value="闸门A3" style="rounded=0;whiteSpace=wrap;html=1;" vertex="1" parent="tF3hamqZoMe6q5XaNYsY-1">
          <mxGeometry x="820" y="100" width="80" height="40" as="geometry" />
        </mxCell>
        <mxCell id="tF3hamqZoMe6q5XaNYsY-19" value="闸门A2" style="rounded=0;whiteSpace=wrap;html=1;" vertex="1" parent="tF3hamqZoMe6q5XaNYsY-1">
          <mxGeometry x="740" y="100" width="80" height="40" as="geometry" />
        </mxCell>
        <mxCell id="tF3hamqZoMe6q5XaNYsY-20" value="闸门B1" style="rounded=0;whiteSpace=wrap;html=1;" vertex="1" parent="tF3hamqZoMe6q5XaNYsY-1">
          <mxGeometry x="660" y="180" width="80" height="40" as="geometry" />
        </mxCell>
        <mxCell id="tF3hamqZoMe6q5XaNYsY-21" value="闸门B1" style="rounded=0;whiteSpace=wrap;html=1;" vertex="1" parent="tF3hamqZoMe6q5XaNYsY-1">
          <mxGeometry x="740" y="180" width="80" height="40" as="geometry" />
        </mxCell>
        <mxCell id="tF3hamqZoMe6q5XaNYsY-22" value="闸门B3" style="rounded=0;whiteSpace=wrap;html=1;" vertex="1" parent="tF3hamqZoMe6q5XaNYsY-1">
          <mxGeometry x="820" y="180" width="80" height="40" as="geometry" />
        </mxCell>
        <mxCell id="tF3hamqZoMe6q5XaNYsY-23" value="闸门C1" style="rounded=0;whiteSpace=wrap;html=1;" vertex="1" parent="tF3hamqZoMe6q5XaNYsY-1">
          <mxGeometry x="660" y="260" width="80" height="40" as="geometry" />
        </mxCell>
        <mxCell id="tF3hamqZoMe6q5XaNYsY-24" value="闸门C2" style="rounded=0;whiteSpace=wrap;html=1;" vertex="1" parent="tF3hamqZoMe6q5XaNYsY-1">
          <mxGeometry x="740" y="260" width="80" height="40" as="geometry" />
        </mxCell>
        <mxCell id="tF3hamqZoMe6q5XaNYsY-25" value="闸门C3" style="rounded=0;whiteSpace=wrap;html=1;" vertex="1" parent="tF3hamqZoMe6q5XaNYsY-1">
          <mxGeometry x="820" y="260" width="80" height="40" as="geometry" />
        </mxCell>
        <mxCell id="tF3hamqZoMe6q5XaNYsY-26" value="闸门D1" style="rounded=0;whiteSpace=wrap;html=1;" vertex="1" parent="tF3hamqZoMe6q5XaNYsY-1">
          <mxGeometry x="660" y="340" width="80" height="40" as="geometry" />
        </mxCell>
        <mxCell id="tF3hamqZoMe6q5XaNYsY-27" value="闸门D2" style="rounded=0;whiteSpace=wrap;html=1;" vertex="1" parent="tF3hamqZoMe6q5XaNYsY-1">
          <mxGeometry x="740" y="340" width="80" height="40" as="geometry" />
        </mxCell>
        <mxCell id="tF3hamqZoMe6q5XaNYsY-28" value="闸门D3" style="rounded=0;whiteSpace=wrap;html=1;" vertex="1" parent="tF3hamqZoMe6q5XaNYsY-1">
          <mxGeometry x="820" y="340" width="80" height="40" as="geometry" />
        </mxCell>
        <mxCell id="tF3hamqZoMe6q5XaNYsY-29" value="" style="edgeStyle=orthogonalEdgeStyle;rounded=0;orthogonalLoop=1;jettySize=auto;html=1;entryX=0.5;entryY=0;entryDx=0;entryDy=0;startArrow=classic;startFill=1;endArrow=none;endFill=0;" edge="1" parent="tF3hamqZoMe6q5XaNYsY-1" source="tF3hamqZoMe6q5XaNYsY-31" target="tF3hamqZoMe6q5XaNYsY-34">
          <mxGeometry relative="1" as="geometry">
            <Array as="points">
              <mxPoint x="201" y="240" />
              <mxPoint x="100" y="240" />
            </Array>
          </mxGeometry>
        </mxCell>
        <mxCell id="tF3hamqZoMe6q5XaNYsY-30" value="" style="edgeStyle=orthogonalEdgeStyle;rounded=0;orthogonalLoop=1;jettySize=auto;html=1;entryX=0.5;entryY=0;entryDx=0;entryDy=0;endArrow=none;endFill=0;startArrow=classic;startFill=1;" edge="1" parent="tF3hamqZoMe6q5XaNYsY-1" source="tF3hamqZoMe6q5XaNYsY-31" target="tF3hamqZoMe6q5XaNYsY-35">
          <mxGeometry relative="1" as="geometry">
            <Array as="points">
              <mxPoint x="201" y="240" />
              <mxPoint x="300" y="240" />
            </Array>
          </mxGeometry>
        </mxCell>
        <mxCell id="tF3hamqZoMe6q5XaNYsY-31" value="调度计划" style="rounded=0;whiteSpace=wrap;html=1;" vertex="1" parent="tF3hamqZoMe6q5XaNYsY-1">
          <mxGeometry x="141" y="180" width="120" height="40" as="geometry" />
        </mxCell>
        <mxCell id="tF3hamqZoMe6q5XaNYsY-32" value="读取调度计划" style="text;html=1;align=center;verticalAlign=middle;resizable=0;points=[];autosize=1;strokeColor=none;fillColor=none;" vertex="1" parent="tF3hamqZoMe6q5XaNYsY-1">
          <mxGeometry x="270" y="160" width="100" height="30" as="geometry" />
        </mxCell>
        <mxCell id="tF3hamqZoMe6q5XaNYsY-33" value="执行调度计划" style="text;html=1;align=center;verticalAlign=middle;resizable=0;points=[];autosize=1;strokeColor=none;fillColor=none;" vertex="1" parent="tF3hamqZoMe6q5XaNYsY-1">
          <mxGeometry x="510" y="160" width="100" height="30" as="geometry" />
        </mxCell>
        <mxCell id="tF3hamqZoMe6q5XaNYsY-34" value="用水申请" style="rounded=0;whiteSpace=wrap;html=1;" vertex="1" parent="tF3hamqZoMe6q5XaNYsY-1">
          <mxGeometry x="40" y="280" width="120" height="40" as="geometry" />
        </mxCell>
        <mxCell id="tF3hamqZoMe6q5XaNYsY-35" value="泄洪预警" style="rounded=0;whiteSpace=wrap;html=1;" vertex="1" parent="tF3hamqZoMe6q5XaNYsY-1">
          <mxGeometry x="240" y="280" width="120" height="40" as="geometry" />
        </mxCell>
      </root>
    </mxGraphModel>
  </diagram>
</mxfile>
